# xmcd CD database file
#
# Track frame offsets:
#	150
#	22808
#	39035
#	68441
#	91595
#	107750
#	138512
#	164284
#	186674
#
# Disc length: 2634 seconds
#
# Revision: 0
# Processed by: cddbd v1.5.2PL0 Copyright (c) Steve Scherf et al.
# Submitted via: CDex 1.70beta2
#
DISCID=650a4809
DTITLE=Ron Kobayashi Trio - No Preservatives
DYEAR=2001
DGENRE=Jazz
TTITLE0=Plastic People
TTITLE1=What Is
TTITLE2=Are You There
TTITLE3=Chromonktic Blues
TTITLE4=Counter Culture
TTITLE5=McCoy's Diner
TTITLE6=Blues for Thelonious
TTITLE7=In The Ozone
TTITLE8=Alone
EXTD=YEAR: 2001
EXTT0=
EXTT1=
EXTT2=
EXTT3=
EXTT4=
EXTT5=
EXTT6=
EXTT7=
EXTT8=
PLAYORDER=
